<?xml version="1.0" standalone="no"?>
<!DOCTYPE svg PUBLIC "-//W3C//DTD SVG 20010904//EN"
 "http://www.w3.org/TR/2001/REC-SVG-20010904/DTD/svg10.dtd">
<svg version="1.0" xmlns="http://www.w3.org/2000/svg"
 width="500.000000pt" height="500.000000pt" viewBox="0 0 500.000000 500.000000"
 preserveAspectRatio="xMidYMid meet">

<g transform="translate(0.000000,500.000000) scale(0.100000,-0.100000)"
fill="#000000" stroke="none">
<path d="M2074 4088 c-36 -17 -44 -52 -44 -188 l0 -130 -471 0 -472 0 6 59 c4
48 2 63 -12 74 -36 31 -152 28 -173 -5 -4 -7 -8 -147 -8 -310 0 -351 -4 -338
102 -338 88 0 93 5 93 92 l0 73 33 -1 c17 0 225 -1 460 -2 l428 -2 12 -46 c16
-57 50 -74 157 -74 l75 0 0 -75 c0 -64 3 -76 20 -85 16 -8 20 -21 20 -58 0
-45 4 -51 76 -129 42 -46 82 -83 89 -83 7 0 47 37 89 83 70 76 76 85 76 127 0
25 7 54 16 65 11 14 14 39 13 85 l-3 65 98 5 c92 5 99 7 122 33 13 15 24 39
24 53 0 13 6 27 13 29 6 2 231 6 498 7 l487 3 5 -65 c6 -82 25 -100 106 -100
97 0 92 -21 89 345 l-3 320 -81 3 c-103 4 -114 -5 -114 -89 l0 -59 -497 2
-498 3 -5 143 c-5 136 -6 145 -29 163 -22 18 -44 19 -400 18 -237 0 -384 -4
-397 -11z m740 -48 l26 -10 0 -328 c0 -242 -3 -331 -12 -340 -9 -9 -104 -12
-364 -12 -308 0 -353 2 -365 16 -10 12 -12 85 -11 337 1 176 5 324 10 329 4 4
156 9 337 11 182 1 335 3 342 5 6 1 23 -2 37 -8z m-1766 -453 l2 -288 -52 3
-53 3 4 280 c2 154 5 284 8 288 3 4 24 7 46 5 l42 -3 3 -288z m3004 33 c1
-143 2 -272 2 -287 1 -27 -1 -28 -51 -31 l-53 -3 0 284 c0 156 3 287 7 290 3
4 26 7 50 7 l43 0 2 -260z m-2431 90 l399 0 0 -120 0 -120 -465 0 -465 0 0
118 c0 65 3 122 8 126 4 5 34 5 66 2 32 -3 238 -6 457 -6z m2279 -117 l0 -128
-497 5 -498 5 0 115 0 115 465 5 c256 3 480 6 498 8 l32 2 0 -127z m-1292
-360 l-3 -58 -149 -3 c-113 -2 -151 1 -158 10 -4 7 -8 34 -8 61 l0 47 160 0
161 0 -3 -57z m-18 -148 c0 -29 -10 -46 -63 -101 l-63 -66 -62 66 c-51 55 -62
73 -62 101 l0 35 125 0 125 0 0 -35z"/>
<path d="M2165 3960 c-4 -7 -3 -16 3 -22 14 -14 45 -2 40 15 -6 16 -34 21 -43
7z"/>
<path d="M2387 3956 c-116 -32 -187 -127 -187 -249 0 -72 18 -122 64 -174 55
-62 122 -93 207 -93 242 0 356 294 177 455 -22 20 -55 43 -73 51 -51 21 -134
25 -188 10z m78 -31 c26 -25 31 -62 16 -115 -11 -41 -38 -36 -82 14 -24 27
-54 49 -72 54 l-32 8 28 18 c25 17 92 45 110 46 4 0 19 -11 32 -25z m112 -7
c23 -11 45 -28 48 -38 15 -47 -69 -130 -108 -107 -16 10 -18 20 -13 62 4 34 1
59 -9 79 -8 15 -15 30 -15 32 0 8 55 -8 97 -28z m-212 -79 c11 -10 28 -31 37
-47 14 -23 15 -32 5 -45 -10 -13 -21 -14 -56 -7 -46 8 -92 0 -119 -22 -14 -12
-15 -8 -8 31 17 108 78 148 141 90z m326 -35 c27 -58 20 -90 -26 -110 -19 -7
-40 -12 -47 -10 -7 3 -25 7 -40 10 -42 10 -37 45 12 85 25 20 43 44 47 62 7
37 23 26 54 -37z m-179 -51 c37 -33 11 -103 -38 -103 -22 0 -64 42 -64 63 0
19 43 57 63 57 11 0 29 -7 39 -17z m-142 -32 c40 -11 38 -45 -4 -71 -44 -26
-66 -57 -66 -88 0 -34 -21 -23 -46 24 -35 64 -37 88 -9 118 25 27 68 33 125
17z m339 -63 c-28 -120 -103 -142 -166 -49 -21 31 -22 36 -7 52 12 14 27 16
72 12 42 -3 62 -1 77 11 30 23 34 20 24 -26z m-280 -12 c7 -9 9 -33 5 -70 -5
-43 -3 -61 10 -82 10 -14 15 -28 13 -31 -10 -9 -113 26 -130 45 -34 37 -18 83
45 128 39 27 42 28 57 10z m114 -62 c24 -25 52 -46 65 -47 35 -2 21 -19 -41
-51 l-58 -29 -27 20 c-21 15 -28 30 -30 63 -8 102 25 117 91 44z"/>
<path d="M2730 3949 c0 -14 5 -19 17 -17 26 5 29 38 4 38 -15 0 -21 -6 -21
-21z"/>
<path d="M2169 3454 c-9 -11 -9 -18 -1 -26 14 -14 42 -3 42 16 0 20 -27 27
-41 10z"/>
<path d="M2733 3454 c-8 -21 13 -42 28 -27 13 13 5 43 -11 43 -6 0 -13 -7 -17
-16z"/>
<path d="M2400 2783 c-45 -41 -50 -94 -50 -593 0 -405 -1 -438 -19 -470 -10
-19 -34 -44 -52 -55 -33 -19 -58 -20 -679 -26 -788 -8 -702 -4 -698 -31 l3
-23 660 0 c709 0 714 0 775 51 67 57 64 39 70 579 3 270 9 498 14 508 12 26
54 33 74 13 15 -15 17 -66 20 -518 3 -551 2 -564 -57 -645 -40 -55 -118 -92
-218 -105 -50 -6 -300 -6 -698 -1 -648 10 -657 9 -642 -32 6 -14 71 -15 714
-13 815 4 764 -2 864 97 96 97 94 80 94 681 0 476 -1 518 -18 551 -32 64 -105
78 -157 32z"/>
<path d="M913 1208 c-4 -7 -9 -131 -11 -275 l-3 -262 23 -6 c13 -3 732 -4
1598 -3 l1575 3 3 255 c1 140 0 265 -3 278 l-5 22 -1585 0 c-1256 0 -1585 -3
-1592 -12z m3152 -37 c-3 -5 -6 -105 -6 -221 -1 -116 -3 -220 -6 -231 -5 -19
-29 -19 -1554 -19 l-1549 0 0 240 0 240 1561 0 c959 0 1558 -4 1554 -9z"/>
<path d="M2071 1083 c-18 -4 -21 -7 -11 -13 12 -7 8 -32 -22 -135 l-35 -126
25 3 c19 2 28 11 34 34 4 17 14 37 22 43 11 9 15 4 20 -29 7 -47 28 -60 56
-35 23 21 26 37 6 29 -11 -4 -17 7 -24 38 -10 45 -6 53 44 85 17 10 14 12 -20
12 -31 1 -36 -2 -27 -12 8 -10 4 -19 -20 -36 -17 -13 -32 -21 -35 -19 -2 2 7
40 21 84 14 43 25 80 25 82 0 3 -29 0 -59 -5z"/>
<path d="M3572 1083 c-17 -3 -20 -8 -13 -17 7 -8 0 -45 -21 -118 -17 -59 -28
-114 -25 -122 8 -21 30 -20 54 2 10 9 13 13 6 8 -20 -13 -16 17 17 129 40 134
41 129 -18 118z"/>
<path d="M1514 1067 c17 -12 16 -18 -13 -118 -20 -68 -38 -110 -52 -121 -21
-18 -21 -18 22 -17 24 0 38 3 32 6 -7 2 -13 14 -13 25 0 28 42 179 48 173 3
-2 10 -51 16 -107 l11 -103 26 35 c25 32 26 39 18 90 -5 30 -11 76 -14 103
l-6 47 -47 0 c-40 0 -44 -2 -28 -13z"/>
<path d="M1677 988 c-32 -50 -56 -92 -54 -95 2 -2 23 26 47 62 24 36 44 64 46
62 4 -4 -42 -162 -52 -178 -3 -6 -16 -14 -28 -19 -14 -6 2 -9 54 -8 41 0 67 2
58 5 -20 5 -23 26 -9 69 6 16 19 62 31 102 16 54 27 75 43 82 17 7 11 9 -28 9
l-50 0 -58 -91z"/>
<path d="M2553 1068 c16 -12 15 -20 -13 -118 -19 -69 -37 -111 -51 -122 -21
-18 -19 -18 47 -17 38 1 61 3 52 6 -10 2 -18 12 -18 21 0 39 59 217 76 229 15
11 9 13 -46 13 -53 0 -61 -2 -47 -12z"/>
<path d="M2923 1068 c16 -12 16 -18 -3 -88 -31 -113 -49 -158 -68 -163 -9 -3
15 -5 53 -5 39 0 62 2 53 5 -10 2 -18 11 -18 19 0 28 22 104 30 104 8 0 40
-96 40 -119 0 -6 19 -11 46 -11 45 0 46 0 26 18 -12 9 -27 40 -36 69 -14 50
-14 52 5 58 51 17 67 81 27 109 -29 21 -182 24 -155 4z m115 -41 c4 -33 -22
-67 -51 -67 -20 0 -20 15 3 75 13 35 44 30 48 -8z"/>
<path d="M2729 1024 c-7 -8 -26 -22 -42 -31 -20 -10 -26 -17 -18 -23 10 -5 9
-21 -4 -70 -9 -34 -14 -69 -11 -76 8 -21 41 -17 62 8 15 19 16 20 2 9 -23 -17
-23 -6 -2 71 10 34 22 58 30 58 8 0 14 5 14 10 0 6 -5 10 -10 10 -6 0 -8 11
-4 25 7 29 2 32 -17 9z"/>
<path d="M1868 970 c-30 -23 -58 -78 -58 -113 0 -50 57 -60 81 -14 9 18 9 20
-2 10 -20 -20 -29 -15 -29 15 1 43 37 115 55 108 8 -3 15 -1 15 4 0 17 -36 11
-62 -10z"/>
<path d="M1935 963 c-4 -16 -12 -44 -19 -63 -26 -76 -4 -112 45 -70 16 13 18
18 7 14 -22 -8 -22 -4 2 76 11 36 20 66 20 68 0 1 -11 2 -25 2 -19 0 -26 -6
-30 -27z"/>
<path d="M2285 972 c-44 -28 -65 -55 -71 -94 -10 -62 44 -88 107 -51 37 22 37
34 0 20 -35 -13 -61 -4 -61 22 0 13 9 21 33 25 43 8 79 41 75 69 -4 29 -44 33
-83 9z m45 -9 c0 -17 -37 -63 -52 -63 -15 0 -8 27 13 54 23 30 39 34 39 9z"/>
<path d="M3205 972 c-44 -28 -65 -55 -71 -94 -10 -62 44 -88 107 -51 37 22 37
34 0 20 -35 -13 -61 -4 -61 22 0 13 9 21 33 25 43 8 79 41 75 69 -4 29 -44 33
-83 9z m45 -9 c0 -17 -37 -63 -52 -63 -15 0 -8 27 13 54 23 30 39 34 39 9z"/>
<path d="M3368 970 c-30 -23 -58 -78 -58 -113 0 -50 57 -60 81 -14 9 18 9 20
-2 10 -20 -20 -29 -15 -29 15 1 43 37 115 55 108 8 -3 15 -1 15 4 0 17 -36 11
-62 -10z"/>
<path d="M3435 963 c-4 -16 -12 -44 -19 -63 -26 -76 -4 -112 45 -70 16 13 18
18 7 14 -22 -8 -22 -4 2 76 11 36 20 66 20 68 0 1 -11 2 -25 2 -19 0 -26 -6
-30 -27z"/>
</g>
</svg>
