<?xml version="1.0" encoding="UTF-8" standalone="no"?>
<svg
   version="1.1"
   width="1080"
   height="1080"
   viewBox="0 0 1080 1080"
   xml:space="preserve"
   id="svg21"
   sodipodi:docname="logo2.svg"
   inkscape:version="1.3 (0e150ed6c4, 2023-07-21)"
   xmlns:inkscape="http://www.inkscape.org/namespaces/inkscape"
   xmlns:sodipodi="http://sodipodi.sourceforge.net/DTD/sodipodi-0.dtd"
   xmlns="http://www.w3.org/2000/svg"
   xmlns:svg="http://www.w3.org/2000/svg"><sodipodi:namedview
   id="namedview21"
   pagecolor="#ffffff"
   bordercolor="#000000"
   borderopacity="0.25"
   inkscape:showpageshadow="2"
   inkscape:pageopacity="0.0"
   inkscape:pagecheckerboard="0"
   inkscape:deskcolor="#d1d1d1"
   inkscape:zoom="0.71203704"
   inkscape:cx="462.75683"
   inkscape:cy="490.84525"
   inkscape:window-width="2400"
   inkscape:window-height="1421"
   inkscape:window-x="2391"
   inkscape:window-y="-9"
   inkscape:window-maximized="1"
   inkscape:current-layer="svg21" />&#10;<desc
   id="desc1">Created with Fabric.js 5.2.4</desc>&#10;<defs
   id="defs1"><rect
   x="391.76842"
   y="709.55269"
   width="307.35697"
   height="42.702261"
   id="rect22" />&#10;</defs>&#10;&#10;<g
   transform="matrix(1 0 0 1 540 540)"
   id="bca7d677-71fe-4c16-9acf-76170ff8a13b">&#10;</g>&#10;<g
   transform="matrix(0.30005199,0,0,-0.30005199,532.93921,195.83819)"
   id="g1"
   style="fill:#f9f9f9">&#10;<path
   style="opacity:1;fill:#f9f9f9;fill-rule:nonzero;stroke:none;stroke-width:1;stroke-linecap:butt;stroke-linejoin:miter;stroke-miterlimit:4;stroke-dasharray:none;stroke-dashoffset:0"
   vector-effect="non-scaling-stroke"
   transform="translate(-2499.6,-3479.63)"
   d="m 2074,4088 c -36,-17 -44,-52 -44,-188 v -130 h -471 -472 l 6,59 c 4,48 2,63 -12,74 -36,31 -152,28 -173,-5 -4,-7 -8,-147 -8,-310 0,-351 -4,-338 102,-338 88,0 93,5 93,92 v 73 l 33,-1 c 17,0 225,-1 460,-2 l 428,-2 12,-46 c 16,-57 50,-74 157,-74 h 75 v -75 c 0,-64 3,-76 20,-85 16,-8 20,-21 20,-58 0,-45 4,-51 76,-129 42,-46 82,-83 89,-83 7,0 47,37 89,83 70,76 76,85 76,127 0,25 7,54 16,65 11,14 14,39 13,85 l -3,65 98,5 c 92,5 99,7 122,33 13,15 24,39 24,53 0,13 6,27 13,29 6,2 231,6 498,7 l 487,3 5,-65 c 6,-82 25,-100 106,-100 97,0 92,-21 89,345 l -3,320 -81,3 c -103,4 -114,-5 -114,-89 v -59 l -497,2 -498,3 -5,143 c -5,136 -6,145 -29,163 -22,18 -44,19 -400,18 -237,0 -384,-4 -397,-11 z m 740,-48 26,-10 v -328 c 0,-242 -3,-331 -12,-340 -9,-9 -104,-12 -364,-12 -308,0 -353,2 -365,16 -10,12 -12,85 -11,337 1,176 5,324 10,329 4,4 156,9 337,11 182,1 335,3 342,5 6,1 23,-2 37,-8 z m -1766,-453 2,-288 -52,3 -53,3 4,280 c 2,154 5,284 8,288 3,4 24,7 46,5 l 42,-3 z m 3004,33 c 1,-143 2,-272 2,-287 1,-27 -1,-28 -51,-31 l -53,-3 v 284 c 0,156 3,287 7,290 3,4 26,7 50,7 h 43 z m -2431,90 h 399 v -120 -120 h -465 -465 v 118 c 0,65 3,122 8,126 4,5 34,5 66,2 32,-3 238,-6 457,-6 z m 2279,-117 v -128 l -497,5 -498,5 v 115 115 l 465,5 c 256,3 480,6 498,8 l 32,2 z m -1292,-360 -3,-58 -149,-3 c -113,-2 -151,1 -158,10 -4,7 -8,34 -8,61 v 47 h 160 161 z m -18,-148 c 0,-29 -10,-46 -63,-101 l -63,-66 -62,66 c -51,55 -62,73 -62,101 v 35 h 125 125 z"
   stroke-linecap="round"
   id="path1" />&#10;</g>&#10;<g
   transform="matrix(0.30005199,0,0,-0.30005199,433.54124,47.691518)"
   id="g2"
   style="fill:#f9f9f9">&#10;<path
   style="opacity:1;fill:#f9f9f9;fill-rule:nonzero;stroke:none;stroke-width:1;stroke-linecap:butt;stroke-linejoin:miter;stroke-miterlimit:4;stroke-dasharray:none;stroke-dashoffset:0"
   vector-effect="non-scaling-stroke"
   transform="translate(-2185.57,-3950.02)"
   d="m 2165,3960 c -4,-7 -3,-16 3,-22 14,-14 45,-2 40,15 -6,16 -34,21 -43,7 z"
   stroke-linecap="round"
   id="path2" />&#10;</g>&#10;<g
   transform="matrix(0.13,0,0,-0.13,530.06462,363.34654)"
   id="g3"
   style="fill:#f9f9f9">&#10;<path
   style="opacity:1;fill:#f9f9f9;fill-rule:nonzero;stroke:none;stroke-width:2.3081;stroke-linecap:butt;stroke-linejoin:miter;stroke-miterlimit:4;stroke-dasharray:none;stroke-dashoffset:0"
   vector-effect="non-scaling-stroke"
   d="m -249.0048,2371.1712 c -267.73869,-73.859 -431.61324,-293.1277 -431.61324,-574.715 0,-166.1826 41.54566,-281.5872 147.71789,-401.608 126.94508,-143.1017 281.58725,-214.6526 477.77513,-214.6526 558.55828,0 821.68086,678.5791 408.53232,1050.182 -50.778,46.1618 -126.94514,99.2479 -168.4907,117.7127 -117.7127,48.4699 -309.28442,57.7023 -433.9214,23.0809 z m 180.03126,-71.5509 c 60.0103,-57.7023 71.55078,-143.1017 36.92934,-265.4306 -25.389,-94.6317 -87.70744,-83.0913 -189.26349,32.3133 -55.39422,62.3185 -124.63698,113.0965 -166.18265,124.637 l -73.85895,18.4647 64.62658,41.5457 c 57.70232,39.2376 212.3445,103.8642 253.89015,106.1722 9.23237,0 43.853758,-25.389 73.85902,-57.7023 z m 258.50622,-16.1566 c 53.08618,-25.389 103.86418,-64.6266 110.78844,-87.7075 34.62144,-108.4803 -159.2584,-300.052 -249.27392,-246.9659 -36.92948,23.0809 -41.5457,46.1619 -30.00522,143.1017 9.23244,78.4752 2.30804,136.1775 -20.77278001,182.3393 -18.46473999,34.6214 -34.62143999,69.2428 -34.62143999,73.859 0,18.4647 126.94514,-18.4648 223.88492,-64.6266 z m -489.31551,-182.3393 c 25.38901,-23.0809 64.62659,-71.5509 85.39941,-108.4803 32.31329,-53.0861 34.62138,-73.859 11.54047,-103.8642 -23.08092,-30.0052 -48.46995,-32.3133 -129.25317,-16.1566 -106.17225,18.4647 -212.34448,0 -274.66298,-50.778 -32.31328,-27.6972 -34.62138,-18.4648 -18.46474,71.5508 39.23758,249.274 180.0312,341.5977 325.44101,207.7283 z m 752.43809,-80.7832 c 62.31848,-133.8694 46.16178,-207.7283 -60.01044,-253.8902 -43.85374,-16.1566 -92.3237,-27.6971 -108.48026,-23.0809 -16.1567,6.9243 -57.7024,16.1567 -92.3237,23.0809 -96.93992,23.081 -85.39944,103.8642 27.69704,196.1879 57.70226,46.1618 99.24796,101.556 108.4804,143.1017 16.15656,85.3994 53.08604,60.0104 124.63696,-85.3994 z M 39.50672,1902.6285 c 85.39944,-76.1671 25.389,-237.7335 -87.70748,-237.7335 -50.778042,0 -147.71792,96.9399 -147.71792,145.4098 0,43.8537 99.24796,131.5612 145.40974,131.5612 25.38914,0 66.9347,-16.1566 90.01566,-39.2375 z m -327.74909,-73.859 c 92.32369,-25.389 87.70751,-103.8641 -9.23237,-163.8745 -101.55605,-60.0104 -152.33408,-131.5613 -152.33408,-203.1121 0,-78.4752 -48.46995,-53.0862 -106.17225,55.3942 -80.78322,147.7179 -85.39941,203.1121 -20.77282,272.3549 57.7023,62.3184 156.95026,76.167 288.51152,39.2375 z M 494.20096,1683.3597 C 429.5743,1406.3886 256.46738,1355.6106 111.05764,1570.2632 c -48.46996,71.5509 -50.77814,83.0913 -16.1567,120.0208 27.69704,32.3133 62.31848,36.9295 166.18266,27.6971 96.93992,-6.9243 143.1017,-2.3081 177.72314,25.389 69.24274,53.0861 78.47504,46.1619 55.39422,-60.0104 z m -646.26589,-27.6971 c 16.15665,-20.7728 20.77283,-76.167 11.54047,-161.5664 -11.54047,-99.248 -6.92429,-140.7937 23.08092,-189.2636 23.080916,-32.3133 34.62134,-64.6266 30.00519,-71.5509 -23.08092,-20.7728 -260.81441,60.0104 -300.05199,103.8642 -78.47512,85.3994 -41.54566,191.5716 103.86415,295.4358 90.01561,62.3185 96.93988,64.6266 131.56126,23.0809 z m 263.12257,-143.1017 c 55.39422,-57.7023 120.02074,-106.1723 150.02596,-108.4803 80.78322,-4.6162 48.46996,-43.8538 -94.63174,-117.7127 l -133.8694,-66.9347 -62.31848,46.1618 c -48.46996,34.6214 -64.626604,69.2428 -69.242782,145.4098 -18.464738,235.4254 57.702302,270.0468 210.036442,101.5561 z"
   stroke-linecap="round"
   id="path3" />&#10;</g>&#10;<g
   transform="matrix(0.30005199,0,0,-0.30005199,617.28578,46.887701)"
   id="g4"
   style="fill:#f9f9f9">&#10;<path
   style="opacity:1;fill:#f9f9f9;fill-rule:nonzero;stroke:none;stroke-width:1;stroke-linecap:butt;stroke-linejoin:miter;stroke-miterlimit:4;stroke-dasharray:none;stroke-dashoffset:0"
   vector-effect="non-scaling-stroke"
   transform="translate(-2749.11,-3950.79)"
   d="m 2730,3949 c 0,-14 5,-19 17,-17 26,5 29,38 4,38 -15,0 -21,-6 -21,-21 z"
   stroke-linecap="round"
   id="path4" />&#10;</g>&#10;<g
   transform="matrix(0.30005199,0,0,-0.30005199,433.67972,215.84446)"
   id="g5"
   style="fill:#f9f9f9">&#10;<path
   style="opacity:1;fill:#f9f9f9;fill-rule:nonzero;stroke:none;stroke-width:1;stroke-linecap:butt;stroke-linejoin:miter;stroke-miterlimit:4;stroke-dasharray:none;stroke-dashoffset:0"
   vector-effect="non-scaling-stroke"
   transform="translate(-2186.06,-3442.64)"
   d="m 2169,3454 c -9,-11 -9,-18 -1,-26 14,-14 42,-3 42,16 0,20 -27,27 -41,10 z"
   stroke-linecap="round"
   id="path5" />&#10;</g>&#10;<g
   transform="matrix(0.30005199,0,0,-0.30005199,614.53604,216.54799)"
   id="g6"
   style="fill:#f9f9f9">&#10;<path
   style="opacity:1;fill:#f9f9f9;fill-rule:nonzero;stroke:none;stroke-width:1;stroke-linecap:butt;stroke-linejoin:miter;stroke-miterlimit:4;stroke-dasharray:none;stroke-dashoffset:0"
   vector-effect="non-scaling-stroke"
   transform="translate(-2749.36,-3445.96)"
   d="m 2733,3454 c -8,-21 13,-42 28,-27 13,13 5,43 -11,43 -6,0 -13,-7 -17,-16 z"
   stroke-linecap="round"
   id="path6" />&#10;</g>&#10;<g
   transform="matrix(0.30005199,0,0,-0.30005199,303.86106,615.0339)"
   id="g7"
   style="fill:#f9f9f9">&#10;<path
   style="opacity:1;fill:#f9f9f9;fill-rule:nonzero;stroke:none;stroke-width:1;stroke-linecap:butt;stroke-linejoin:miter;stroke-miterlimit:4;stroke-dasharray:none;stroke-dashoffset:0"
   vector-effect="non-scaling-stroke"
   transform="translate(-1736.2,-2115.63)"
   d="m 2400,2783 c -45,-41 -50,-94 -50,-593 0,-405 -1,-438 -19,-470 -10,-19 -34,-44 -52,-55 -33,-19 -58,-20 -679,-26 -788,-8 -702,-4 -698,-31 l 3,-23 h 660 c 709,0 714,0 775,51 67,57 64,39 70,579 3,270 9,498 14,508 12,26 54,33 74,13 15,-15 17,-66 20,-518 3,-551 2,-564 -57,-645 -40,-55 -118,-92 -218,-105 -50,-6 -300,-6 -698,-1 -648,10 -657,9 -642,-32 6,-14 71,-15 714,-13 815,4 764,-2 864,97 96,97 94,80 94,681 0,476 -1,518 -18,551 -32,64 -105,78 -157,32 z"
   stroke-linecap="round"
   id="path7" />&#10;</g>&#10;<g
   transform="matrix(0.30005199,0,0,-0.30005199,532.66223,979.7817)"
   id="g8"
   style="fill:#f9f9f9">&#10;<path
   style="opacity:1;fill:#f9f9f9;fill-rule:nonzero;stroke:none;stroke-width:1;stroke-linecap:butt;stroke-linejoin:miter;stroke-miterlimit:4;stroke-dasharray:none;stroke-dashoffset:0"
   vector-effect="non-scaling-stroke"
   transform="translate(-2498.69,-940.81)"
   d="m 913,1208 c -4,-7 -9,-131 -11,-275 l -3,-262 23,-6 c 13,-3 732,-4 1598,-3 l 1575,3 3,255 c 1,140 0,265 -3,278 l -5,22 H 2505 c -1256,0 -1585,-3 -1592,-12 z m 3152,-37 c -3,-5 -6,-105 -6,-221 -1,-116 -3,-220 -6,-231 -5,-19 -29,-19 -1554,-19 H 950 v 240 240 h 1561 c 959,0 1558,-4 1554,-9 z"
   stroke-linecap="round"
   id="path8" />&#10;</g>&#10;<g
   transform="matrix(0.30005199,0,0,-0.30005199,421.38912,978.30455)"
   id="g9"
   style="fill:#f9f9f9">&#10;<path
   style="opacity:1;fill:#f9f9f9;fill-rule:nonzero;stroke:none;stroke-width:1;stroke-linecap:butt;stroke-linejoin:miter;stroke-miterlimit:4;stroke-dasharray:none;stroke-dashoffset:0"
   vector-effect="non-scaling-stroke"
   transform="translate(-2099.56,-949.1)"
   d="m 2071,1083 c -18,-4 -21,-7 -11,-13 12,-7 8,-32 -22,-135 l -35,-126 25,3 c 19,2 28,11 34,34 4,17 14,37 22,43 11,9 15,4 20,-29 7,-47 28,-60 56,-35 23,21 26,37 6,29 -11,-4 -17,7 -24,38 -10,45 -6,53 44,85 17,10 14,12 -20,12 -31,1 -36,-2 -27,-12 8,-10 4,-19 -20,-36 -17,-13 -32,-21 -35,-19 -2,2 7,40 21,84 14,43 25,80 25,82 0,3 -29,0 -59,-5 z"
   stroke-linecap="round"
   id="path9" />&#10;</g>&#10;<g
   transform="matrix(0.30005199,0,0,-0.30005199,872.85195,978.21216)"
   id="g10"
   style="fill:#f9f9f9">&#10;<path
   style="opacity:1;fill:#f9f9f9;fill-rule:nonzero;stroke:none;stroke-width:1;stroke-linecap:butt;stroke-linejoin:miter;stroke-miterlimit:4;stroke-dasharray:none;stroke-dashoffset:0"
   vector-effect="non-scaling-stroke"
   transform="translate(-3565.45,-949.45)"
   d="m 3572,1083 c -17,-3 -20,-8 -13,-17 7,-8 0,-45 -21,-118 -17,-59 -28,-114 -25,-122 8,-21 30,-20 54,2 10,9 13,13 6,8 -20,-13 -16,17 17,129 40,134 41,129 -18,118 z"
   stroke-linecap="round"
   id="path10" />&#10;</g>&#10;<g
   transform="matrix(0.30005199,0,0,-0.30005199,244.42768,980.33572)"
   id="g11"
   style="fill:#f9f9f9">&#10;<path
   style="opacity:1;fill:#f9f9f9;fill-rule:nonzero;stroke:none;stroke-width:1;stroke-linecap:butt;stroke-linejoin:miter;stroke-miterlimit:4;stroke-dasharray:none;stroke-dashoffset:0"
   vector-effect="non-scaling-stroke"
   transform="translate(-1524.36,-942.5)"
   d="m 1514,1067 c 17,-12 16,-18 -13,-118 -20,-68 -38,-110 -52,-121 -21,-18 -21,-18 22,-17 24,0 38,3 32,6 -7,2 -13,14 -13,25 0,28 42,179 48,173 3,-2 10,-51 16,-107 l 11,-103 26,35 c 25,32 26,39 18,90 -5,30 -11,76 -14,103 l -6,47 h -47 c -40,0 -44,-2 -28,-13 z"
   stroke-linecap="round"
   id="path11" />&#10;</g>&#10;<g
   transform="matrix(0.30005199,0,0,-0.30005199,305.31516,979.50469)"
   id="g12"
   style="fill:#f9f9f9">&#10;<path
   style="opacity:1;fill:#f9f9f9;fill-rule:nonzero;stroke:none;stroke-width:1;stroke-linecap:butt;stroke-linejoin:miter;stroke-miterlimit:4;stroke-dasharray:none;stroke-dashoffset:0"
   vector-effect="non-scaling-stroke"
   transform="translate(-1722.43,-945.41)"
   d="m 1677,988 c -32,-50 -56,-92 -54,-95 2,-2 23,26 47,62 24,36 44,64 46,62 4,-4 -42,-162 -52,-178 -3,-6 -16,-14 -28,-19 -14,-6 2,-9 54,-8 41,0 67,2 58,5 -20,5 -23,26 -9,69 6,16 19,62 31,102 16,54 27,75 43,82 17,7 11,9 -28,9 h -50 z"
   stroke-linecap="round"
   id="path12" />&#10;</g>&#10;<g
   transform="matrix(0.30005199,0,0,-0.30005199,564.72164,979.50469)"
   id="g13"
   style="fill:#f9f9f9">&#10;<path
   style="opacity:1;fill:#f9f9f9;fill-rule:nonzero;stroke:none;stroke-width:1;stroke-linecap:butt;stroke-linejoin:miter;stroke-miterlimit:4;stroke-dasharray:none;stroke-dashoffset:0"
   vector-effect="non-scaling-stroke"
   transform="translate(-2565.12,-945.33)"
   d="m 2553,1068 c 16,-12 15,-20 -13,-118 -19,-69 -37,-111 -51,-122 -21,-18 -19,-18 47,-17 38,1 61,3 52,6 -10,2 -18,12 -18,21 0,39 59,217 76,229 15,11 9,13 -46,13 -53,0 -61,-2 -47,-12 z"
   stroke-linecap="round"
   id="path13" />&#10;</g>&#10;<g
   transform="matrix(0.30005199,0,0,-0.30005199,690.69731,979.36625)"
   id="g14"
   style="fill:#f9f9f9">&#10;<path
   style="opacity:1;fill:#f9f9f9;fill-rule:nonzero;stroke:none;stroke-width:1;stroke-linecap:butt;stroke-linejoin:miter;stroke-miterlimit:4;stroke-dasharray:none;stroke-dashoffset:0"
   vector-effect="non-scaling-stroke"
   transform="translate(-2975.3,-945.74)"
   d="m 2923,1068 c 16,-12 16,-18 -3,-88 -31,-113 -49,-158 -68,-163 -9,-3 15,-5 53,-5 39,0 62,2 53,5 -10,2 -18,11 -18,19 0,28 22,104 30,104 8,0 40,-96 40,-119 0,-6 19,-11 46,-11 45,0 46,0 26,18 -12,9 -27,40 -36,69 -14,50 -14,52 5,58 51,17 67,81 27,109 -29,21 -182,24 -155,4 z m 115,-41 c 4,-33 -22,-67 -51,-67 -20,0 -20,15 3,75 13,35 44,30 48,-8 z"
   stroke-linecap="round"
   id="path14" />&#10;</g>&#10;<g
   transform="matrix(0.30005199,0,0,-0.30005199,608.52923,985.94436)"
   id="g15"
   style="fill:#f9f9f9">&#10;<path
   style="opacity:1;fill:#f9f9f9;fill-rule:nonzero;stroke:none;stroke-width:1;stroke-linecap:butt;stroke-linejoin:miter;stroke-miterlimit:4;stroke-dasharray:none;stroke-dashoffset:0"
   vector-effect="non-scaling-stroke"
   transform="translate(-2706.56,-924.86)"
   d="m 2729,1024 c -7,-8 -26,-22 -42,-31 -20,-10 -26,-17 -18,-23 10,-5 9,-21 -4,-70 -9,-34 -14,-69 -11,-76 8,-21 41,-17 62,8 15,19 16,20 2,9 -23,-17 -23,-6 -2,71 10,34 22,58 30,58 8,0 14,5 14,10 0,6 -5,10 -10,10 -6,0 -8,11 -4,25 7,29 2,32 -17,9 z"
   stroke-linecap="round"
   id="path15" />&#10;</g>&#10;<g
   transform="matrix(0.30005199,0,0,-0.30005199,351.03846,993.30716)"
   id="g16"
   style="fill:#f9f9f9">&#10;<path
   style="opacity:1;fill:#f9f9f9;fill-rule:nonzero;stroke:none;stroke-width:1;stroke-linecap:butt;stroke-linejoin:miter;stroke-miterlimit:4;stroke-dasharray:none;stroke-dashoffset:0"
   vector-effect="non-scaling-stroke"
   transform="translate(-1870,-901.66)"
   d="m 1868,970 c -30,-23 -58,-78 -58,-113 0,-50 57,-60 81,-14 9,18 9,20 -2,10 -20,-20 -29,-15 -29,15 1,43 37,115 55,108 8,-3 15,-1 15,4 0,17 -36,11 -62,-10 z"
   stroke-linecap="round"
   id="path16" />&#10;</g>&#10;<g
   transform="matrix(0.30005199,0,0,-0.30005199,375.01955,993.46869)"
   id="g17"
   style="fill:#f9f9f9">&#10;<path
   style="opacity:1;fill:#f9f9f9;fill-rule:nonzero;stroke:none;stroke-width:1;stroke-linecap:butt;stroke-linejoin:miter;stroke-miterlimit:4;stroke-dasharray:none;stroke-dashoffset:0"
   vector-effect="non-scaling-stroke"
   transform="translate(-1947.49,-901.11)"
   d="m 1935,963 c -4,-16 -12,-44 -19,-63 -26,-76 -4,-112 45,-70 16,13 18,18 7,14 -22,-8 -22,-4 2,76 11,36 20,66 20,68 0,1 -11,2 -25,2 -19,0 -26,-6 -30,-27 z"
   stroke-linecap="round"
   id="path17" />&#10;</g>&#10;<g
   transform="matrix(0.30005199,0,0,-0.30005199,480.31471,994.16114)"
   id="g18"
   style="fill:#f9f9f9">&#10;<path
   style="opacity:1;fill:#f9f9f9;fill-rule:nonzero;stroke:none;stroke-width:1;stroke-linecap:butt;stroke-linejoin:miter;stroke-miterlimit:4;stroke-dasharray:none;stroke-dashoffset:0"
   vector-effect="non-scaling-stroke"
   transform="translate(-2290.55,-898.81)"
   d="m 2285,972 c -44,-28 -65,-55 -71,-94 -10,-62 44,-88 107,-51 37,22 37,34 0,20 -35,-13 -61,-4 -61,22 0,13 9,21 33,25 43,8 79,41 75,69 -4,29 -44,33 -83,9 z m 45,-9 c 0,-17 -37,-63 -52,-63 -15,0 -8,27 13,54 23,30 39,34 39,9 z"
   stroke-linecap="round"
   id="path18" />&#10;</g>&#10;<g
   transform="matrix(0.30005199,0,0,-0.30005199,763.44837,994.16114)"
   id="g19"
   style="fill:#f9f9f9">&#10;<path
   style="opacity:1;fill:#f9f9f9;fill-rule:nonzero;stroke:none;stroke-width:1;stroke-linecap:butt;stroke-linejoin:miter;stroke-miterlimit:4;stroke-dasharray:none;stroke-dashoffset:0"
   vector-effect="non-scaling-stroke"
   transform="translate(-3210.55,-898.81)"
   d="m 3205,972 c -44,-28 -65,-55 -71,-94 -10,-62 44,-88 107,-51 37,22 37,34 0,20 -35,-13 -61,-4 -61,22 0,13 9,21 33,25 43,8 79,41 75,69 -4,29 -44,33 -83,9 z m 45,-9 c 0,-17 -37,-63 -52,-63 -15,0 -8,27 13,54 23,30 39,34 39,9 z"
   stroke-linecap="round"
   id="path19" />&#10;</g>&#10;<g
   transform="matrix(0.30005199,0,0,-0.30005199,812.65691,993.30716)"
   id="g20"
   style="fill:#f9f9f9">&#10;<path
   style="opacity:1;fill:#f9f9f9;fill-rule:nonzero;stroke:none;stroke-width:1;stroke-linecap:butt;stroke-linejoin:miter;stroke-miterlimit:4;stroke-dasharray:none;stroke-dashoffset:0"
   vector-effect="non-scaling-stroke"
   transform="translate(-3370,-901.66)"
   d="m 3368,970 c -30,-23 -58,-78 -58,-113 0,-50 57,-60 81,-14 9,18 9,20 -2,10 -20,-20 -29,-15 -29,15 1,43 37,115 55,108 8,-3 15,-1 15,4 0,17 -36,11 -62,-10 z"
   stroke-linecap="round"
   id="path20" />&#10;</g>&#10;<g
   transform="matrix(0.30005199,0,0,-0.30005199,836.63799,993.46869)"
   id="g21"
   style="fill:#f9f9f9">&#10;<path
   style="opacity:1;fill:#f9f9f9;fill-rule:nonzero;stroke:none;stroke-width:1;stroke-linecap:butt;stroke-linejoin:miter;stroke-miterlimit:4;stroke-dasharray:none;stroke-dashoffset:0"
   vector-effect="non-scaling-stroke"
   transform="translate(-3447.49,-901.11)"
   d="m 3435,963 c -4,-16 -12,-44 -19,-63 -26,-76 -4,-112 45,-70 16,13 18,18 7,14 -22,-8 -22,-4 2,76 11,36 20,66 20,68 0,1 -11,2 -25,2 -19,0 -26,-6 -30,-27 z"
   stroke-linecap="round"
   id="path21" />&#10;</g>&#10;</svg>
